<svg width="1268" height="1242" viewBox="0 0 1268 1242" fill="none" xmlns="http://www.w3.org/2000/svg">
<path d="M632.232 681.691C613.09 679.952 482.135 572.585 378.155 572.585C248.878 572.585 174.979 637.354 64.4738 698.643C21.1986 722.645 7.04499 749.501 1.38932 786.014C-5.5348 830.717 13.8438 887.05 50.1166 908.594C532.949 1195.38 564.887 1241.06 634.408 1241.99C703.929 1242.92 797.033 1156.25 1220.44 902.508C1261.66 877.805 1269.17 833.828 1267.86 799.053C1266.34 758.582 1246.11 724.325 1213.05 705.598C1076.44 628.224 995.077 567.368 910.239 570.412C793.648 574.593 651.376 683.429 632.232 681.691Z" fill="url(#paint0_linear_319_221)"/>
<mask id="mask0_319_221" style="mask-type:alpha" maskUnits="userSpaceOnUse" x="0" y="570" width="1269" height="672">
<path d="M632.232 681.691C613.09 679.952 482.135 572.585 378.155 572.585C248.878 572.585 174.979 637.354 64.4738 698.643C21.1986 722.645 7.04499 749.501 1.38932 786.014C-5.5348 830.717 13.8438 887.05 50.1166 908.594C532.949 1195.38 564.887 1241.06 634.408 1241.99C703.929 1242.92 797.033 1156.25 1220.44 902.508C1261.66 877.805 1269.17 833.828 1267.86 799.053C1266.34 758.582 1246.11 724.325 1213.05 705.598C1076.44 628.224 995.077 567.368 910.239 570.412C793.648 574.593 651.376 683.429 632.232 681.691Z" fill="url(#paint1_linear_319_221)"/>
</mask>
<g mask="url(#mask0_319_221)">
<g filter="url(#filter0_dddd_319_221)">
<path d="M632.233 400.884C613.09 399.146 482.136 291.78 378.156 291.78C248.878 291.78 174.98 356.547 64.4737 417.837C21.1986 441.839 7.04499 468.695 1.38932 505.208C-5.53479 549.91 13.8438 606.244 50.1167 627.788C532.948 914.568 564.887 960.253 634.408 961.194C703.93 962.126 797.033 875.447 1220.44 621.702C1261.66 596.999 1269.17 553.023 1267.86 518.248C1266.34 477.776 1246.11 443.519 1213.05 424.791C1076.44 347.418 995.077 286.563 910.239 289.605C793.648 293.786 651.376 402.624 632.233 400.884Z" fill="url(#paint2_linear_319_221)"/>
</g>
</g>
<path d="M632.232 400.884C613.09 399.146 482.135 291.78 378.155 291.78C248.878 291.78 174.979 356.547 64.4738 417.837C21.1986 441.839 7.04499 468.695 1.38932 505.208C-5.5348 549.91 13.8438 606.244 50.1166 627.788C532.949 914.568 564.887 960.253 634.408 961.194C703.929 962.126 797.033 875.447 1220.44 621.702C1261.66 596.999 1269.17 553.023 1267.86 518.248C1266.34 477.776 1246.11 443.519 1213.05 424.791C1076.44 347.418 995.077 286.563 910.239 289.605C793.648 293.786 651.376 402.624 632.232 400.884Z" fill="url(#paint3_linear_319_221)"/>
<mask id="mask1_319_221" style="mask-type:alpha" maskUnits="userSpaceOnUse" x="0" y="289" width="1269" height="673">
<path d="M632.232 400.884C613.09 399.146 482.135 291.78 378.155 291.78C248.878 291.78 174.979 356.547 64.4738 417.837C21.1986 441.839 7.04499 468.695 1.38932 505.208C-5.5348 549.91 13.8438 606.244 50.1166 627.788C532.949 914.568 564.887 960.253 634.408 961.194C703.929 962.126 797.033 875.447 1220.44 621.702C1261.66 596.999 1269.17 553.023 1267.86 518.248C1266.34 477.776 1246.11 443.519 1213.05 424.791C1076.44 347.418 995.077 286.563 910.239 289.605C793.648 293.786 651.376 402.624 632.232 400.884Z" fill="url(#paint4_linear_319_221)"/>
</mask>
<g mask="url(#mask1_319_221)">
<g filter="url(#filter1_dddd_319_221)">
<path d="M632.233 111.388C613.091 109.65 482.136 2.28371 378.156 2.2837C248.878 2.28368 174.98 67.0512 64.4738 128.341C21.1986 152.343 7.045 179.199 1.38932 215.712C-5.5348 260.414 13.8438 316.748 50.1167 338.292C532.949 625.072 564.887 670.76 634.408 671.693C703.93 672.626 797.033 585.951 1220.44 332.206C1261.66 307.503 1269.17 263.526 1267.86 228.752C1266.35 188.28 1246.11 154.023 1213.04 135.295C1076.43 57.9219 995.081 -2.93345 910.24 0.109319C793.648 4.29095 651.376 113.128 632.233 111.388Z" fill="url(#paint5_linear_319_221)"/>
</g>
</g>
<path d="M632.234 111.388C613.091 109.65 482.136 2.28371 378.156 2.2837C248.88 2.28368 174.981 67.0512 64.4747 128.341C21.1995 152.343 7.04596 179.199 1.39029 215.712C-5.53383 260.414 13.8448 316.748 50.1176 338.292C532.95 625.072 564.889 670.76 634.409 671.693C703.93 672.626 797.033 585.951 1220.44 332.206C1261.66 307.503 1269.17 263.526 1267.86 228.752C1266.34 188.28 1246.11 154.023 1213.04 135.295C1076.43 57.9219 995.083 -2.93345 910.24 0.109319C793.65 4.29095 651.377 113.128 632.234 111.388Z" fill="url(#paint6_linear_319_221)"/>
<defs>
<filter id="filter0_dddd_319_221" x="-256" y="241.496" width="1780" height="1616.71" filterUnits="userSpaceOnUse" color-interpolation-filters="sRGB">
<feFlood flood-opacity="0" result="BackgroundImageFix"/>
<feColorMatrix in="SourceAlpha" type="matrix" values="0 0 0 0 0 0 0 0 0 0 0 0 0 0 0 0 0 0 127 0" result="hardAlpha"/>
<feOffset dy="40"/>
<feGaussianBlur stdDeviation="44"/>
<feColorMatrix type="matrix" values="0 0 0 0 0 0 0 0 0 0 0 0 0 0 0 0 0 0 0.1 0"/>
<feBlend mode="normal" in2="BackgroundImageFix" result="effect1_dropShadow_319_221"/>
<feColorMatrix in="SourceAlpha" type="matrix" values="0 0 0 0 0 0 0 0 0 0 0 0 0 0 0 0 0 0 127 0" result="hardAlpha"/>
<feOffset dy="160"/>
<feGaussianBlur stdDeviation="80"/>
<feColorMatrix type="matrix" values="0 0 0 0 0 0 0 0 0 0 0 0 0 0 0 0 0 0 0.09 0"/>
<feBlend mode="normal" in2="effect1_dropShadow_319_221" result="effect2_dropShadow_319_221"/>
<feColorMatrix in="SourceAlpha" type="matrix" values="0 0 0 0 0 0 0 0 0 0 0 0 0 0 0 0 0 0 127 0" result="hardAlpha"/>
<feOffset dy="361"/>
<feGaussianBlur stdDeviation="108"/>
<feColorMatrix type="matrix" values="0 0 0 0 0 0 0 0 0 0 0 0 0 0 0 0 0 0 0.05 0"/>
<feBlend mode="normal" in2="effect2_dropShadow_319_221" result="effect3_dropShadow_319_221"/>
<feColorMatrix in="SourceAlpha" type="matrix" values="0 0 0 0 0 0 0 0 0 0 0 0 0 0 0 0 0 0 127 0" result="hardAlpha"/>
<feOffset dy="641"/>
<feGaussianBlur stdDeviation="128"/>
<feColorMatrix type="matrix" values="0 0 0 0 0 0 0 0 0 0 0 0 0 0 0 0 0 0 0.01 0"/>
<feBlend mode="normal" in2="effect3_dropShadow_319_221" result="effect4_dropShadow_319_221"/>
<feBlend mode="normal" in="SourceGraphic" in2="effect4_dropShadow_319_221" result="shape"/>
</filter>
<filter id="filter1_dddd_319_221" x="-256" y="-48" width="1780" height="1616.7" filterUnits="userSpaceOnUse" color-interpolation-filters="sRGB">
<feFlood flood-opacity="0" result="BackgroundImageFix"/>
<feColorMatrix in="SourceAlpha" type="matrix" values="0 0 0 0 0 0 0 0 0 0 0 0 0 0 0 0 0 0 127 0" result="hardAlpha"/>
<feOffset dy="40"/>
<feGaussianBlur stdDeviation="44"/>
<feColorMatrix type="matrix" values="0 0 0 0 0 0 0 0 0 0 0 0 0 0 0 0 0 0 0.1 0"/>
<feBlend mode="normal" in2="BackgroundImageFix" result="effect1_dropShadow_319_221"/>
<feColorMatrix in="SourceAlpha" type="matrix" values="0 0 0 0 0 0 0 0 0 0 0 0 0 0 0 0 0 0 127 0" result="hardAlpha"/>
<feOffset dy="160"/>
<feGaussianBlur stdDeviation="80"/>
<feColorMatrix type="matrix" values="0 0 0 0 0 0 0 0 0 0 0 0 0 0 0 0 0 0 0.09 0"/>
<feBlend mode="normal" in2="effect1_dropShadow_319_221" result="effect2_dropShadow_319_221"/>
<feColorMatrix in="SourceAlpha" type="matrix" values="0 0 0 0 0 0 0 0 0 0 0 0 0 0 0 0 0 0 127 0" result="hardAlpha"/>
<feOffset dy="361"/>
<feGaussianBlur stdDeviation="108"/>
<feColorMatrix type="matrix" values="0 0 0 0 0 0 0 0 0 0 0 0 0 0 0 0 0 0 0.05 0"/>
<feBlend mode="normal" in2="effect2_dropShadow_319_221" result="effect3_dropShadow_319_221"/>
<feColorMatrix in="SourceAlpha" type="matrix" values="0 0 0 0 0 0 0 0 0 0 0 0 0 0 0 0 0 0 127 0" result="hardAlpha"/>
<feOffset dy="641"/>
<feGaussianBlur stdDeviation="128"/>
<feColorMatrix type="matrix" values="0 0 0 0 0 0 0 0 0 0 0 0 0 0 0 0 0 0 0.01 0"/>
<feBlend mode="normal" in2="effect3_dropShadow_319_221" result="effect4_dropShadow_319_221"/>
<feBlend mode="normal" in="SourceGraphic" in2="effect4_dropShadow_319_221" result="shape"/>
</filter>
<linearGradient id="paint0_linear_319_221" x1="633.999" y1="570.302" x2="633.999" y2="1241.99" gradientUnits="userSpaceOnUse">
<stop stop-color="#D00075"/>
<stop offset="1" stop-color="#980276"/>
</linearGradient>
<linearGradient id="paint1_linear_319_221" x1="633.999" y1="570.302" x2="633.999" y2="1241.99" gradientUnits="userSpaceOnUse">
<stop stop-color="#FF006C"/>
<stop offset="1" stop-color="#D72483"/>
</linearGradient>
<linearGradient id="paint2_linear_319_221" x1="633.998" y1="289.496" x2="633.998" y2="961.194" gradientUnits="userSpaceOnUse">
<stop stop-color="#FF006C"/>
<stop offset="1" stop-color="#D72483"/>
</linearGradient>
<linearGradient id="paint3_linear_319_221" x1="633.999" y1="289.496" x2="633.999" y2="961.194" gradientUnits="userSpaceOnUse">
<stop stop-color="#FD0469"/>
<stop offset="1" stop-color="#CE0074"/>
</linearGradient>
<linearGradient id="paint4_linear_319_221" x1="633.999" y1="289.496" x2="633.999" y2="961.194" gradientUnits="userSpaceOnUse">
<stop stop-color="#F80064"/>
<stop offset="1" stop-color="#C70173"/>
</linearGradient>
<linearGradient id="paint5_linear_319_221" x1="633.999" y1="-2.97974e-07" x2="633.999" y2="671.693" gradientUnits="userSpaceOnUse">
<stop stop-color="#FF006C"/>
<stop offset="1" stop-color="#D72483"/>
</linearGradient>
<linearGradient id="paint6_linear_319_221" x1="634" y1="-2.97974e-07" x2="634" y2="671.693" gradientUnits="userSpaceOnUse">
<stop stop-color="#FF0A62"/>
<stop offset="1" stop-color="#DD1155"/>
</linearGradient>
</defs>
</svg>
